<svg xmlns="http://www.w3.org/2000/svg"><symbol id="icon-book" viewBox="0 0 24 24"><path d="M5.495 2H22V0H5a3 3 0 0 0-3 3v18a3 3 0 0 0 3 3h17V4H5.495c-1.376 0-1.376-2 0-2zM6 6h7v7l2-2 2 2V6h3v16H6V6z"/></symbol><symbol id="icon-twitter" viewBox="0 0 24 24"><path d="M12 0C5.373 0 0 5.373 0 12s5.373 12 12 12 12-5.373 12-12S18.627 0 12 0zm6.066 9.645c.183 4.04-2.83 8.544-8.164 8.544a8.127 8.127 0 0 1-4.402-1.3 5.778 5.778 0 0 0 4.252-1.19 2.88 2.88 0 0 1-2.684-2c.45.086.895.06 1.298-.05-1.38-.277-2.335-1.52-2.304-2.85.388.214.83.343 1.3.36a2.877 2.877 0 0 1-.888-3.837 8.153 8.153 0 0 0 5.92 3 2.876 2.876 0 0 1 4.895-2.62 5.73 5.73 0 0 0 1.82-.696 2.884 2.884 0 0 1-1.27 1.59 5.73 5.73 0 0 0 1.65-.456 5.765 5.765 0 0 1-1.437 1.49z"/></symbol><symbol id="icon-weather" viewBox="0 0 24 24"><path d="M9.125 19.41L5.535 23l-1.41-1.41L7.715 18l1.41 1.41zm1.125 1.09a1.25 1.25 0 1 0 0 2.5 1.25 1.25 0 0 0 0-2.5zM24 12.722C24 15.084 22.05 17 19.645 17H9.355a4.36 4.36 0 0 1-3.675-2H4.354C1.95 15 0 13.084 0 10.722c0-2.1 1.545-3.846 3.578-4.206C3.746 3.443 6.328 1 9.5 1c1.797 0 3.403.785 4.49 2.024 3.4-.286 6.254 2.258 6.432 5.492C22.455 8.876 24 10.62 24 12.722zM8.578 8.516c.116-2.126 1.39-3.95 3.212-4.872C11.214 3.25 10.467 3 9.5 3 5.625 3 5.438 6.854 5.488 8.21 4.104 8.124 2 8.603 2 10.72 2 11.978 3.057 13 4.354 13h.674c-.147-2.357 1.528-4.126 3.55-4.484zM22 12.722c0-2.076-1.98-2.618-3.488-2.512C18.73 8.77 18.272 5 14.5 5c-3.875 0-4.062 3.854-4.012 5.21C9.104 10.124 7 10.603 7 12.72 7 13.978 8.057 15 9.354 15h10.29c1.3 0 2.356-1.022 2.356-2.278zM12.75 18a1.25 1.25 0 1 0 0 2.5 1.25 1.25 0 0 0 0-2.5zM14 21.59L15.41 23 19 19.41 17.59 18 14 21.59zm2.48-12.838l-1.48.88V8h-1v1.633l-1.494-.896-.506.867 1.5.896-1.5.865.537.867L14 11.367V13h1v-1.633l1.467.87.533-.868-1.5-.87 1.5-.88-.52-.87z"/></symbol></svg>