<svg xmlns="http://www.w3.org/2000/svg" width="24" height="24" viewBox="0 0 24 24"><path d="M12 0C5.373 0 0 5.373 0 12s5.373 12 12 12 12-5.373 12-12S18.627 0 12 0zm6.066 9.645c.183 4.04-2.83 8.544-8.164 8.544a8.127 8.127 0 0 1-4.402-1.3 5.778 5.778 0 0 0 4.252-1.19 2.88 2.88 0 0 1-2.684-2c.45.086.895.06 1.298-.05-1.38-.277-2.335-1.52-2.304-2.85.388.214.83.343 1.3.36a2.877 2.877 0 0 1-.888-3.837 8.153 8.153 0 0 0 5.92 3 2.876 2.876 0 0 1 4.895-2.62 5.73 5.73 0 0 0 1.82-.696 2.884 2.884 0 0 1-1.27 1.59 5.73 5.73 0 0 0 1.65-.456 5.765 5.765 0 0 1-1.437 1.49z"/></svg>